<svg width="800" height="800" viewBox="0 0 800 800" fill="none" xmlns="http://www.w3.org/2000/svg">
<path d="M373.656 327.736C322.708 327.736 274.812 347.576 238.792 383.596C232.504 389.888 232.504 400.084 238.792 406.372C245.08 412.664 255.284 412.664 261.576 406.372C291.512 376.44 331.316 359.952 373.656 359.952C415.992 359.952 455.808 376.444 485.748 406.376C488.892 409.524 493.016 411.1 497.136 411.096C501.26 411.096 505.384 409.524 508.528 406.376C514.82 400.084 514.82 389.888 508.528 383.596C472.504 347.576 424.6 327.736 373.656 327.736Z" fill="white"/>
<path d="M633.572 282.092C657.276 258.388 670.328 226.876 670.328 193.36C670.328 159.844 657.272 128.332 633.576 104.628C624.144 95.1878 608.84 95.1918 599.404 104.628C589.964 114.064 589.964 129.364 599.396 138.8C613.972 153.376 622 172.752 622 193.364C622 213.968 613.972 233.344 599.404 247.92L590.732 256.588L590.728 256.592L578.508 244.368C571.168 237.032 561.22 232.912 550.844 232.912C540.468 232.912 530.52 237.032 523.188 244.368L502.644 264.908C500.38 267.18 496.92 267.772 494.024 266.384C456.924 248.632 416.012 239.268 373.664 239.268C299.088 239.268 228.976 268.308 176.24 321.04C67.3839 429.9 67.3839 607.02 176.24 715.872C228.976 768.612 299.084 797.652 373.66 797.652C448.232 797.652 518.352 768.608 571.08 715.872C656.852 630.1 675.032 501.94 625.64 398.188C624.256 395.296 624.852 391.848 627.12 389.576L647.76 368.932C663.028 353.656 663.028 328.892 647.76 313.616L624.9 290.76L624.904 290.756L633.572 282.092ZM536.908 681.708C493.304 725.308 435.324 749.324 373.66 749.324C311.996 749.324 254.02 725.308 210.416 681.708C120.404 591.692 120.404 445.228 210.416 355.216C254.024 311.616 312 287.6 373.668 287.6C435.336 287.6 493.312 311.612 536.916 355.216C626.912 445.228 626.912 591.688 536.908 681.708Z" fill="white"/>
<path d="M557.148 85.46C560.288 88.604 564.416 90.18 568.54 90.18C572.656 90.18 576.784 88.6082 579.932 85.4642C586.224 79.1762 586.224 68.972 579.932 62.68L554.716 37.46C548.436 31.164 538.228 31.168 531.936 37.46C525.644 43.752 525.644 53.9479 531.936 60.2439L557.148 85.46Z" fill="white"/>
<path d="M513.264 138.012H548.924C557.824 138.012 565.036 130.8 565.036 121.9C565.036 113.004 557.82 105.792 548.924 105.792H513.264C504.364 105.792 497.156 113.008 497.156 121.9C497.156 130.8 504.368 138.012 513.264 138.012Z" fill="white"/>
<path d="M616.232 70.2119C625.136 70.2119 632.34 62.996 632.34 54.104V18.4441C632.34 9.54409 625.132 2.33203 616.232 2.33203C607.332 2.33203 600.12 9.54409 600.12 18.4441V54.104C600.116 62.996 607.328 70.2119 616.232 70.2119Z" fill="white"/>
<path d="M700.684 37.1C694.392 30.812 684.188 30.812 677.904 37.1L652.688 62.32C646.396 68.608 646.396 78.808 652.688 85.1C655.836 88.244 659.956 89.82 664.08 89.82C668.204 89.82 672.332 88.244 675.468 85.1L700.684 59.8798C706.976 53.5918 706.976 43.392 700.684 37.1Z" fill="white"/>
</svg>
