<svg width="800" height="800" viewBox="0 0 800 800" fill="none" xmlns="http://www.w3.org/2000/svg">
<g clip-path="url(#clip0_68_53)">
<path fill-rule="evenodd" clip-rule="evenodd" d="M263.757 719.992H149.551C118.726 719.992 99.5459 682.589 115.177 655.949L159.799 581.554C183.087 635.154 218.976 679.992 263.757 719.992ZM308.898 218.234C418.837 125.234 541.138 162.589 644.379 182.629C674.884 188.589 706.067 176.19 724.251 150.91L792.719 61.2223C803.765 45.8223 802.09 24.7199 788.732 11.3199C771.545 -5.92007 742.914 -3.08116 729.435 17.1988C656.182 113.358 668.145 113.955 531.767 82.3551C498.829 74.7151 464.615 71.584 431.199 76.984C249.202 106.384 113.542 273.022 131.526 466.222L11.0997 675.675C-20.1236 728.995 18.2372 799.992 79.8863 799.992H478.532C638.038 800.392 740.441 696.145 761.576 556.105C784.465 404.105 687.006 270.707 549.313 239.347C420.99 210.107 289.398 299.183 288.6 431.183C288.042 530.743 360.338 613.542 454.925 629.582C526.544 641.702 599.916 597.822 607.493 525.382C615.069 453.262 559.003 392.394 488.661 392.394C466.649 392.394 448.824 410.274 448.824 432.394C448.824 454.474 466.688 472.394 488.74 472.394C510.752 472.394 528.617 490.274 528.617 512.394C528.617 534.474 510.752 552.394 488.74 552.394C418.398 552.394 362.252 491.466 369.789 419.386C377.405 346.906 450.578 303.027 522.197 315.187C616.784 331.227 688.681 414.026 688.123 513.546C687.365 643.266 558.803 732.792 432.156 706.632C305.109 680.392 209.605 567.554 209.605 432.394C209.605 346.474 248.205 269.594 308.898 218.234Z" fill="white"/>
</g>
<defs>
<clipPath id="clip0_68_53">
<rect width="800" height="800" fill="white"/>
</clipPath>
</defs>
</svg>
