<svg width="800" height="800" viewBox="0 0 800 800" fill="none" xmlns="http://www.w3.org/2000/svg">
<path fill-rule="evenodd" clip-rule="evenodd" d="M133.333 400C133.333 252.724 252.724 133.333 400 133.333C547.277 133.333 666.667 252.724 666.667 400C666.667 547.277 547.277 666.667 400 666.667C252.724 666.667 133.333 547.277 133.333 400ZM400 66.6667C215.905 66.6667 66.6667 215.905 66.6667 400C66.6667 584.093 215.905 733.333 400 733.333C584.093 733.333 733.333 584.093 733.333 400C733.333 215.905 584.093 66.6667 400 66.6667ZM267.662 508.083C262.471 487.32 278.868 466.673 300 466.66H500C521.107 466.673 537.527 487.24 532.337 508C515.08 566.27 459.51 600 400 600C342.777 600 282.295 566.62 267.662 508.083ZM579.813 285.093C571.58 268.627 551.56 261.953 535.093 270.186L435.093 320.186C423.8 325.832 416.667 337.373 416.667 350C416.667 362.627 423.8 374.167 435.093 379.813L535.093 429.813C551.56 438.047 571.58 431.373 579.813 414.907C588.047 398.44 581.373 378.42 564.907 370.187L524.537 350L564.907 329.814C581.373 321.581 588.047 301.559 579.813 285.093ZM264.907 270.186C248.441 261.953 228.419 268.627 220.186 285.093C211.953 301.559 218.627 321.581 235.093 329.814L275.464 350L235.093 370.187C218.627 378.42 211.953 398.44 220.186 414.907C228.419 431.373 248.441 438.047 264.907 429.813L364.907 379.813C376.2 374.167 383.333 362.627 383.333 350C383.333 337.373 376.2 325.832 364.907 320.186L264.907 270.186Z" fill="white"/>
</svg>
