<svg width="800" height="800" viewBox="0 0 800 800" fill="none" xmlns="http://www.w3.org/2000/svg">
<path d="M654.395 47.8516C621.305 88.8984 576.72 127.511 522.95 158.545C465.484 191.709 405.662 211.077 350.586 218.014C353.786 227.488 357.33 236.998 361.231 246.53C386.247 246.963 407.116 245.852 418.116 244.186L432.913 241.795L446.094 239.795L446.438 255.711C446.172 265.355 445.602 275.102 444.727 284.961L533.203 298.778C534.547 298.63 535.88 298.544 537.208 298.533C554.689 298.355 570.708 309.923 575.439 327.584C576.466 331.409 576.88 335.245 576.759 339.011C586.091 335.769 595.123 332.284 603.759 328.511L618.752 321.967L622.366 337.936C627.808 361.855 631.784 386.975 633.889 413.033C684.828 387.244 731.934 352.672 770.313 308.594C765.281 251.203 745.072 186.656 709.18 124.511C708.031 122.523 706.883 120.564 705.711 118.605L662.648 230.127C670.702 231.317 678.466 235.061 684.667 241.261C699.995 256.584 700 281.402 684.667 296.73C669.336 312.058 644.477 312.053 629.152 296.73C615.308 282.889 614.011 261.292 625.195 245.948L686.036 88.3797C675.958 74.0359 665.388 60.5188 654.395 47.8516ZM81.0031 185.5C67.7844 212.645 56.3781 242.059 47.8984 273.681C25.8547 355.895 26.0859 435.684 43.5047 497.803C64.2859 493.733 84.8203 491.616 104.93 491.506C107.828 491.487 110.692 491.537 113.57 491.6C146.159 492.35 177.602 498.369 207.273 509.569C205.586 492.137 204.686 474.297 204.686 456.103C204.686 412.666 209.584 371.139 218.748 332.764L222.608 316.503L237.694 323.631C283.736 345.475 341.122 360.231 403.756 363.037C411.781 331.709 416.553 300.881 418.456 271.241C363.459 278.787 300.664 275.562 236.57 258.397C176.628 242.347 123.58 216.553 81.0047 185.497L81.0031 185.5ZM441.306 313.966C438.908 330.297 435.658 346.825 431.591 363.477C456.392 363.175 480.475 360.986 503.466 357.273C501.816 354.398 500.505 351.302 499.606 347.948C497.333 339.461 498.044 330.878 501.072 323.292L441.306 313.964V313.966ZM164.063 314.648L170.556 343.117L136.816 350.781C150.488 358.866 157.68 375.317 153.369 391.406C148.181 410.772 128.298 422.278 108.936 417.091C89.5703 411.903 78.0609 391.973 83.2484 372.606C84.3047 368.673 85.9922 365.075 88.1328 361.866L55.2234 369.334L48.7781 340.869L164.059 314.65L164.063 314.648ZM771.241 350.294C731.35 390.075 684.825 421.302 635.45 444.825C635.528 448.57 635.595 452.325 635.595 456.103C635.595 470.459 635.042 484.591 633.986 498.486C659.978 500.564 684.056 495.83 704.836 483.839C745.344 460.461 768.286 412.442 771.242 350.292L771.241 350.294ZM241.797 354.981C235.5 386.22 231.906 419.528 231.787 454.345L231.983 453.811C279.745 469.708 329.83 481.267 380.811 487.209L392.53 488.577L393.652 500.295L402.537 594.241L373.436 596.975L369.483 555.178C362.378 558.108 354.286 558.834 346.287 556.691C326.923 551.503 315.413 531.625 320.603 512.259C321.048 510.603 321.614 509.009 322.264 507.473C291.741 501.65 261.739 494.048 232.567 484.77C236.77 562.302 257.808 631.708 288.964 682.67C323.911 739.839 370.417 772.952 420.164 772.952C469.911 772.956 516.417 739.842 551.367 682.67C581.892 632.733 602.689 565.102 607.469 489.458C582.823 496.734 557.634 502.82 532.078 507.67C535.069 514.811 535.852 522.952 533.692 531.011C528.502 550.377 508.622 561.883 489.258 556.694C488.114 556.389 487.023 556.027 485.938 555.622L482.031 596.981L452.978 594.244L461.866 500.298L462.991 488.58L474.706 487.213C520.402 481.889 565.323 472.03 608.545 458.6V456.109C608.545 422.402 604.998 390.125 599.07 359.625C548.644 379.145 489.206 390.625 425.488 390.625C357.378 390.625 294.259 377.097 241.797 354.98V354.981ZM105.078 520.556C88.0938 520.716 70.7109 522.462 52.9297 525.733C72.7656 575.139 104.675 608.655 145.117 619.483C171.523 626.55 199.642 623.445 227.638 611.28C220.791 589.577 215.334 566.583 211.475 542.577C178.483 527.541 142.828 520.202 105.078 520.555V520.556ZM319.922 645.9H524.317C461.689 715.578 379.594 712.844 319.922 645.9Z" fill="white"/>
</svg>
