<svg width="512" height="512" viewBox="0 0 512 512" fill="none" xmlns="http://www.w3.org/2000/svg">
<g clip-path="url(#clip0_68_31)">
<path d="M185.029 199.251C159.826 199.251 139.407 219.685 139.407 244.888C139.407 270.091 159.825 290.515 185.029 290.515C210.223 290.515 230.657 270.091 230.657 244.888C230.657 219.685 210.223 199.251 185.029 199.251Z" fill="white"/>
<path d="M326.971 199.251C301.783 199.251 281.349 219.685 281.349 244.888C281.349 270.091 301.783 290.515 326.971 290.515C352.165 290.515 372.599 270.091 372.599 244.888C372.599 219.685 352.165 199.251 326.971 199.251Z" fill="white"/>
<path d="M281.103 310.79L256.008 271.575L230.909 310.79C223.071 323.337 249.729 339.021 256.008 312.353C262.282 339.021 288.929 323.338 281.103 310.79Z" fill="white"/>
<path d="M177.687 365.194V390.21H205.063V353.706H189.18C182.823 353.706 177.687 358.861 177.687 365.194Z" fill="white"/>
<path d="M248.142 353.706H220.771V390.21H248.142V353.706Z" fill="white"/>
<path d="M291.235 353.706H263.859V390.21H291.235V353.706Z" fill="white"/>
<path d="M322.826 353.706H306.944V390.21H334.324V365.194C334.324 358.861 329.178 353.706 322.826 353.706Z" fill="white"/>
<path d="M177.687 426.366C177.687 432.729 182.823 437.854 189.181 437.854H205.063V401.361H177.687V426.366Z" fill="white"/>
<path d="M248.142 401.362H220.771V437.855H248.142V401.362Z" fill="white"/>
<path d="M291.235 401.362H263.859V437.855H291.235V401.362Z" fill="white"/>
<path d="M306.944 437.855H322.826C329.178 437.855 334.324 432.73 334.324 426.367V401.362H306.944V437.855Z" fill="white"/>
<path d="M417.751 75.551L417.771 75.541C403.957 58.363 384.414 39.453 357.795 24.848C331.187 10.222 297.503 -0.0100003 256.008 -3.05925e-07C214.497 -0.0100003 180.819 10.222 154.205 24.848C127.583 39.453 108.045 58.363 94.235 75.541C63.377 114.073 45.051 164.242 44.991 211.006V316.203C45.006 324.485 47.079 333.163 50.637 341.762C55.999 354.636 64.742 367.401 76.033 377.682C85.577 386.371 97.045 393.298 109.879 396.552V418.589C109.905 426.862 112.462 436.717 118.127 447.257C123.806 457.765 132.683 468.887 145.507 479.08C164.723 494.377 199.609 512.041 256.007 512.001C312.395 512.041 347.286 494.377 366.492 479.08C379.326 468.888 388.183 457.766 393.862 447.257C399.522 436.718 402.095 426.863 402.115 418.589V396.552C420.005 392.021 435.184 380.383 446.366 366.669C452.699 358.861 457.805 350.362 461.368 341.763C464.91 333.164 466.988 324.486 467.008 316.204V211.006C466.95 164.242 448.624 114.072 417.751 75.551ZM434.434 316.203C434.434 332.866 412.526 365.966 386.7 365.966C381.109 365.966 375.33 364.413 369.562 360.81C369.562 360.81 369.562 406.428 369.562 418.588C369.562 430.77 345.219 479.434 256.008 479.434C166.778 479.434 142.45 430.77 142.45 418.588C142.45 406.428 142.45 360.81 142.45 360.81C136.666 364.412 130.892 365.966 125.296 365.966C99.48 365.966 77.552 332.866 77.552 316.203C77.552 295.907 77.552 279.956 77.552 211.006C77.552 142.066 130.289 32.566 256.008 32.566C381.723 32.566 434.434 142.066 434.434 211.006C434.434 279.956 434.434 295.907 434.434 316.203Z" fill="white"/>
</g>
<defs>
<clipPath id="clip0_68_31">
<rect width="512" height="512" fill="white"/>
</clipPath>
</defs>
</svg>
