<svg width="139" height="19" viewBox="0 0 139 19" fill="none" xmlns="http://www.w3.org/2000/svg">
<path d="M6.088 18.288C4.952 18.288 3.904 18.08 2.944 17.664C2 17.232 1.224 16.624 0.616 15.84L2.776 13.248C3.24 13.856 3.728 14.32 4.24 14.64C4.752 14.944 5.304 15.096 5.896 15.096C7.48 15.096 8.272 14.168 8.272 12.312V4.32H2.368V1.2H12.136V12.096C12.136 14.176 11.624 15.728 10.6 16.752C9.576 17.776 8.072 18.288 6.088 18.288ZM23.4404 18.288C21.0564 18.288 19.1924 17.624 17.8484 16.296C16.5044 14.968 15.8324 13.072 15.8324 10.608V1.2H19.7204V10.464C19.7204 12.064 20.0484 13.216 20.7044 13.92C21.3604 14.624 22.2804 14.976 23.4644 14.976C24.6484 14.976 25.5684 14.624 26.2244 13.92C26.8804 13.216 27.2084 12.064 27.2084 10.464V1.2H31.0484V10.608C31.0484 13.072 30.3764 14.968 29.0324 16.296C27.6884 17.624 25.8244 18.288 23.4404 18.288ZM40.4104 18.288C39.0664 18.288 37.7784 18.112 36.5464 17.76C35.3144 17.392 34.3224 16.92 33.5704 16.344L34.8904 13.416C35.6104 13.928 36.4584 14.352 37.4344 14.688C38.4264 15.008 39.4264 15.168 40.4344 15.168C41.2024 15.168 41.8184 15.096 42.2824 14.952C42.7624 14.792 43.1144 14.576 43.3384 14.304C43.5624 14.032 43.6744 13.72 43.6744 13.368C43.6744 12.92 43.4984 12.568 43.1464 12.312C42.7944 12.04 42.3304 11.824 41.7544 11.664C41.1784 11.488 40.5384 11.328 39.8344 11.184C39.1464 11.024 38.4504 10.832 37.7464 10.608C37.0584 10.384 36.4264 10.096 35.8504 9.744C35.2744 9.392 34.8024 8.928 34.4344 8.352C34.0824 7.776 33.9064 7.04 33.9064 6.144C33.9064 5.184 34.1624 4.312 34.6744 3.528C35.2024 2.728 35.9864 2.096 37.0264 1.632C38.0824 1.152 39.4024 0.912 40.9864 0.912C42.0424 0.912 43.0824 1.04 44.1064 1.296C45.1304 1.536 46.0344 1.904 46.8184 2.4L45.6184 5.352C44.8344 4.904 44.0504 4.576 43.2664 4.368C42.4824 4.144 41.7144 4.032 40.9624 4.032C40.2104 4.032 39.5944 4.12 39.1144 4.296C38.6344 4.472 38.2904 4.704 38.0824 4.992C37.8744 5.264 37.7704 5.584 37.7704 5.952C37.7704 6.384 37.9464 6.736 38.2984 7.008C38.6504 7.264 39.1144 7.472 39.6904 7.632C40.2664 7.792 40.8984 7.952 41.5864 8.112C42.2904 8.272 42.9864 8.456 43.6744 8.664C44.3784 8.872 45.0184 9.152 45.5944 9.504C46.1704 9.856 46.6344 10.32 46.9864 10.896C47.3544 11.472 47.5384 12.2 47.5384 13.08C47.5384 14.024 47.2744 14.888 46.7464 15.672C46.2184 16.456 45.4264 17.088 44.3704 17.568C43.3304 18.048 42.0104 18.288 40.4104 18.288ZM53.4408 18V4.368H48.0648V1.2H62.7048V4.368H57.3288V18H53.4408ZM68.3967 8.76H76.4607V11.88H68.3967V8.76ZM68.6847 18H64.7967V1.2H77.4927V4.32H68.6847V18ZM80.1248 18V1.2H84.0128V18H80.1248ZM87.9998 18V1.2H91.8878V14.832H100.312V18H87.9998ZM102.484 18V1.2H105.7L112.852 13.056H111.148L118.18 1.2H121.372L121.42 18H117.772L117.748 6.792H118.42L112.804 16.224H111.052L105.316 6.792H106.132V18H102.484ZM130.926 18.288C129.582 18.288 128.294 18.112 127.062 17.76C125.83 17.392 124.838 16.92 124.086 16.344L125.406 13.416C126.126 13.928 126.974 14.352 127.95 14.688C128.942 15.008 129.942 15.168 130.95 15.168C131.718 15.168 132.334 15.096 132.798 14.952C133.278 14.792 133.63 14.576 133.854 14.304C134.078 14.032 134.19 13.72 134.19 13.368C134.19 12.92 134.014 12.568 133.662 12.312C133.31 12.04 132.846 11.824 132.27 11.664C131.694 11.488 131.054 11.328 130.35 11.184C129.662 11.024 128.966 10.832 128.262 10.608C127.574 10.384 126.942 10.096 126.366 9.744C125.79 9.392 125.318 8.928 124.95 8.352C124.598 7.776 124.422 7.04 124.422 6.144C124.422 5.184 124.678 4.312 125.19 3.528C125.718 2.728 126.502 2.096 127.542 1.632C128.598 1.152 129.918 0.912 131.502 0.912C132.558 0.912 133.598 1.04 134.622 1.296C135.646 1.536 136.55 1.904 137.334 2.4L136.134 5.352C135.35 4.904 134.566 4.576 133.782 4.368C132.998 4.144 132.23 4.032 131.478 4.032C130.726 4.032 130.11 4.12 129.63 4.296C129.15 4.472 128.806 4.704 128.598 4.992C128.39 5.264 128.286 5.584 128.286 5.952C128.286 6.384 128.462 6.736 128.814 7.008C129.166 7.264 129.63 7.472 130.206 7.632C130.782 7.792 131.414 7.952 132.102 8.112C132.806 8.272 133.502 8.456 134.19 8.664C134.894 8.872 135.534 9.152 136.11 9.504C136.686 9.856 137.15 10.32 137.502 10.896C137.87 11.472 138.054 12.2 138.054 13.08C138.054 14.024 137.79 14.888 137.262 15.672C136.734 16.456 135.942 17.088 134.886 17.568C133.846 18.048 132.526 18.288 130.926 18.288Z" fill="#E50914"/>
</svg>
