<svg width="730" height="800" viewBox="0 0 730 800" fill="none" xmlns="http://www.w3.org/2000/svg">
<path d="M716.012 437.026C698.4 417.831 665.587 421.914 643.644 438.145C623.591 454.856 486.498 544.953 486.498 544.953H319.875L319.35 545.215C310.573 544.925 303.716 537.556 303.975 528.795C304.295 520.017 311.678 513.143 320.397 513.448L319.873 513.143C349.662 513.143 442.637 513.143 442.637 513.143C467.283 513.143 487.28 493.176 487.28 468.547C487.28 443.872 467.283 423.89 442.637 423.89C420.317 423.89 375.703 423.89 264.128 423.89C152.523 423.89 117.183 470.408 78.1219 509.439L7.26562 571.345C2.64375 575.356 0 581.125 0 587.258V792.984C0 795.701 1.62813 798.215 4.12656 799.364C6.62656 800.498 9.5625 800.104 11.6547 798.289L148.602 680.872C153.427 676.773 159.878 675.029 166.098 676.148L379.542 714.948C394.422 717.651 409.739 714.237 422.148 705.504C422.148 705.504 694.533 516.083 714.673 499.326C733.828 481.742 733.625 456.223 716.012 437.026Z" fill="white"/>
<path d="M303.047 341.145C336.673 364.179 378.991 381.064 378.991 381.064C382.884 382.329 388.902 383.433 390.994 383.433C393.058 383.433 399.073 382.329 402.969 381.064C402.969 381.064 445.256 364.179 478.911 341.145C530.12 306.239 613.184 237.722 613.184 141.129C613.184 43.156 557.759 -1.23934 496.786 0.0262893C450.284 0.868477 422.819 28.3482 404.392 55.4357C401.02 60.4638 395.992 63.6747 390.994 63.806C385.966 63.6747 380.937 60.4638 377.595 55.4357C359.169 28.3482 331.675 0.868477 285.173 0.0262893C224.169 -1.23934 168.803 43.156 168.803 141.129C168.803 237.722 251.836 306.24 303.047 341.145ZM257.33 61.3779C262.008 55.6388 267.85 50.7716 274.534 46.7154C281.133 42.7341 289.706 44.8404 293.687 51.4388C297.7 58.0357 295.577 66.6247 288.978 70.5919C284.591 73.2654 281.364 76.056 278.98 79.0044C274.127 84.9919 265.32 85.8779 259.333 81.0107C253.377 76.1435 252.477 67.3669 257.33 61.3779ZM224.633 150.3C224.633 140.972 225.592 132.311 227.655 124.347C229.602 116.876 237.247 112.415 244.687 114.378C252.156 116.311 256.602 123.94 254.684 131.393C253.319 136.567 252.534 142.873 252.534 150.3C252.534 157.653 253.291 166.111 254.887 175.586C257.445 190.758 263.898 204.853 273.342 218.09C277.819 224.353 276.366 233.072 270.087 237.548C263.781 242.023 255.091 240.57 250.616 234.293C239.194 218.351 230.736 200.245 227.364 180.236C225.562 169.512 224.633 159.572 224.633 150.3Z" fill="white"/>
</svg>
