<svg width="800" height="800" viewBox="0 0 800 800" fill="none" xmlns="http://www.w3.org/2000/svg">
<path d="M400 733.333C215.905 733.333 66.6667 584.095 66.6667 400C66.6667 215.905 215.905 66.6667 400 66.6667C584.095 66.6667 733.333 215.905 733.333 400C733.333 584.095 584.095 733.333 400 733.333ZM400 700C565.685 700 700 565.685 700 400C700 234.315 565.685 100 400 100C234.315 100 100 234.315 100 400C100 565.685 234.315 700 400 700ZM300 550C300 559.205 292.538 566.667 283.333 566.667C274.129 566.667 266.667 559.205 266.667 550C266.667 485.567 318.9 433.333 383.333 433.333H417.259C481.694 433.333 533.928 485.568 533.928 550.002C533.928 559.207 526.466 566.668 517.261 566.668C508.056 566.668 500.594 559.207 500.594 550.002C500.594 503.977 463.284 466.667 417.259 466.667H383.333C337.31 466.667 300 503.976 300 550ZM300 366.667C281.591 366.667 266.667 351.743 266.667 333.333C266.667 314.924 281.591 300 300 300C318.41 300 333.333 314.924 333.333 333.333C333.333 351.743 318.41 366.667 300 366.667ZM500 366.667C481.591 366.667 466.667 351.743 466.667 333.333C466.667 314.924 481.591 300 500 300C518.409 300 533.333 314.924 533.333 333.333C533.333 351.743 518.409 366.667 500 366.667Z" fill="white"/>
</svg>
